# xmcd
# 
# Track frame offsets:
#     150
#     13442
#     28754
#     44983
#     59776
#     75007
#     86211
#     101215
#     122987
#     134100
#     147730
#     160900
#     173897
# 
# Disc length: 2512
# 
# Revision: 0
# Processed by: cddbd v1.5.2PL0 Copyright (c) Steve Scherf et al.
# Submitted via: fre:ac v1.0.17
# 
DISCID=ce09ce0d
DTITLE=Yvette Landry - No Man's Land
DYEAR=2013
DGENRE=Country
TTITLE0=Dog House Blues
TTITLE1=Butterfly Kisses
TTITLE2=Three Chords and a Bottle
TTITLE3=My Next Mr. Ex
TTITLE4=Forever Cowboy
TTITLE5=What I'm Thinking
TTITLE6=Yeah, You Right!
TTITLE7=Lord, I Get High
TTITLE8=I'd Love to Lay You Down
TTITLE9=This House is Not a Home
TTITLE10=Little Gold Band
TTITLE11=What in the Hell They Did Back Then
TTITLE12=When I Die
EXTD=
EXTT0=
EXTT1=
EXTT2=
EXTT3=
EXTT4=
EXTT5=
EXTT6=
EXTT7=
EXTT8=
EXTT9=
EXTT10=
EXTT11=
EXTT12=
PLAYORDER=
